<svg width="118" height="86" viewBox="0 0 118 86" fill="none" xmlns="http://www.w3.org/2000/svg">
<path fill-rule="evenodd" clip-rule="evenodd" d="M111.066 75.5822V75.8369C111.066 75.7945 111.066 75.752 111.066 75.7096C111.066 75.6671 111.066 75.6247 111.066 75.5822ZM63.5525 7.2802C63.5037 7.78473 63.356 8.27471 63.1179 8.72215V8.71444L59.8302 14.9193C59.3492 15.8229 58.529 16.4985 57.5499 16.7974C56.5708 17.0962 55.513 16.9939 54.6094 16.5129C53.7057 16.0319 53.0301 15.2116 52.7313 14.2325C52.4324 13.2534 52.5347 12.1957 53.0157 11.2921L56.3034 5.09495C56.5415 4.64751 56.8655 4.25135 57.2568 3.92911C57.648 3.60686 58.0989 3.36484 58.5837 3.21685C59.0685 3.06887 59.5777 3.01782 60.0823 3.06663C60.5868 3.11543 61.0768 3.26314 61.5242 3.5013C61.9717 3.73947 62.3678 4.06343 62.6901 4.4547C63.0123 4.84596 63.2543 5.29687 63.4023 5.78167C63.5503 6.26647 63.6013 6.77567 63.5525 7.2802ZM33.2939 1.63011C33.6166 2.02132 33.8592 2.47228 34.0077 2.95722L36.0605 9.6714C36.3433 10.6448 36.2317 11.6903 35.7499 12.5821C35.2681 13.4738 34.4548 14.1402 33.4857 14.4372C32.5166 14.7343 31.4696 14.638 30.5708 14.1694C29.6721 13.7007 28.9938 12.8973 28.6826 11.9326L26.6221 5.21843C26.4736 4.73349 26.4221 4.22405 26.4705 3.7192C26.5189 3.21435 26.6663 2.72398 26.9042 2.27608C27.1421 1.82819 27.4659 1.43154 27.8572 1.10879C28.2484 0.78604 28.6993 0.543503 29.1843 0.395029C29.6692 0.246556 30.1786 0.195055 30.6835 0.243464C31.1883 0.291873 31.6787 0.439244 32.1266 0.677166C32.5745 0.915087 32.9711 1.2389 33.2939 1.63011ZM59.2437 25.9784C54.9991 20.9929 48.6785 17.8287 41.6093 17.8287C37.4412 17.8297 33.3507 18.9558 29.7694 21.0882C26.1881 23.2207 23.2489 26.2804 21.262 29.9444C19.275 33.6084 18.3141 37.7409 18.4806 41.9057C18.647 46.0704 19.9347 50.113 22.2077 53.6068C24.3402 52.1034 26.6799 50.918 29.1534 50.0877C26.987 47.116 25.9529 43.4685 26.2371 39.802C26.5214 36.1356 28.1054 32.691 30.7039 30.0888C33.3024 27.4866 36.7446 25.8976 40.4107 25.6081C44.0768 25.3186 47.7257 26.3476 50.7005 28.5097C53.3862 27.3135 56.2493 26.4568 59.2437 25.9784ZM7.90848 19.0456C8.41301 19.0944 8.90298 19.2421 9.35043 19.4803H9.34271L15.5475 22.7679C16.4512 23.2489 17.1268 24.0692 17.4256 25.0483C17.7245 26.0274 17.6222 27.0851 17.1412 27.9888C16.6602 28.8924 15.8399 29.568 14.8608 29.8669C13.8817 30.1657 12.824 30.0634 11.9203 29.5824L5.72323 26.2948C5.27578 26.0566 4.87963 25.7326 4.55738 25.3414C4.23514 24.9501 3.99311 24.4992 3.84513 24.0144C3.69714 23.5296 3.6461 23.0204 3.6949 22.5159C3.74371 22.0113 3.89141 21.5214 4.12958 21.0739C4.36774 20.6265 4.69171 20.2303 5.08297 19.9081C5.47424 19.5858 5.92515 19.3438 6.40995 19.1958C6.89475 19.0478 7.40395 18.9968 7.90848 19.0456ZM14.7977 52.035C14.329 52.9338 13.5255 53.612 12.5609 53.9232L5.84671 55.9761C5.35992 56.1331 4.84676 56.1918 4.33708 56.1487C3.8274 56.1056 3.33137 55.9617 2.87783 55.7252C2.4243 55.4887 2.02231 55.1644 1.69524 54.7711C1.36817 54.3778 1.12256 53.9235 0.972671 53.4344C0.822787 52.9454 0.771627 52.4314 0.822166 51.9224C0.872706 51.4134 1.02394 50.9196 1.26706 50.4696C1.51019 50.0195 1.84036 49.6223 2.23838 49.3011C2.63639 48.9798 3.09431 48.7409 3.5855 48.5982L10.2997 46.5453C11.273 46.2626 12.3186 46.3741 13.2103 46.8559C14.1021 47.3377 14.7685 48.151 15.0655 49.1201C15.3625 50.0892 15.2663 51.1363 14.7977 52.035Z" fill="#F1C411"/>
<path d="M94.5962 85.3992C97.5811 85.3992 100.537 84.8153 103.294 83.6809C106.052 82.5465 108.558 80.8838 110.668 78.7878C114.931 74.5545 117.325 68.813 117.325 62.8264C117.325 56.8397 114.931 51.0982 110.668 46.865C106.406 42.6318 100.624 40.2536 94.5962 40.2536C90.0504 29.6443 79.595 22.1953 67.3213 22.1953C51.7291 22.1953 38.9553 34.204 37.7734 49.4181L35.5005 49.2827C30.678 49.2827 26.053 51.1852 22.643 54.5718C19.2329 57.9584 17.3172 62.5516 17.3172 67.3409C17.3172 72.1303 19.2329 76.7235 22.643 80.11C26.053 83.4966 30.678 85.3992 35.5005 85.3992H94.5962ZM35.5005 58.3118H44.5922V53.7972C44.5922 47.8106 46.9868 42.0691 51.2494 37.8359C55.5119 33.6026 61.2931 31.2244 67.3213 31.2244C78.6858 31.2244 88.0048 39.4409 89.7777 50.1404C91.2778 49.5987 92.9143 49.2827 94.5962 49.2827C98.2131 49.2827 101.682 50.7096 104.239 53.2495C106.797 55.7895 108.234 59.2344 108.234 62.8264C108.234 66.4184 106.797 69.8633 104.239 72.4032C101.682 74.9431 98.2131 76.3701 94.5962 76.3701H35.5005C33.0893 76.3701 30.7768 75.4188 29.0717 73.7255C27.3667 72.0322 26.4089 69.7356 26.4089 67.3409C26.4089 64.9463 27.3667 62.6497 29.0717 60.9564C30.7768 59.2631 33.0893 58.3118 35.5005 58.3118Z" fill="white"/>
</svg>
