<svg width="77" height="63" viewBox="0 0 77 63" fill="none" xmlns="http://www.w3.org/2000/svg">
<path fill-rule="evenodd" clip-rule="evenodd" d="M71.992 49.9659V50.1252C71.9921 50.0986 71.9922 50.0721 71.9922 50.0455C71.9922 50.019 71.9921 49.9924 71.992 49.9659ZM59.4458 62.6286L24.1434 62.6286C24.1544 62.6286 24.1654 62.6287 24.1763 62.6287H59.4091C59.4213 62.6287 59.4336 62.6286 59.4458 62.6286ZM41.0041 5.41648C40.9723 5.74552 40.876 6.06508 40.7206 6.3569V6.35187L38.5765 10.3986C38.2628 10.988 37.7278 11.4286 37.0892 11.6235C36.4507 11.8184 35.7608 11.7517 35.1715 11.438C34.5821 11.1243 34.1415 10.5893 33.9466 9.95073C33.7517 9.31217 33.8184 8.62234 34.1321 8.03298L36.2763 3.99127C36.4316 3.69945 36.6429 3.44108 36.8981 3.23092C37.1532 3.02075 37.4473 2.86291 37.7635 2.76639C38.0797 2.66988 38.4118 2.63659 38.7408 2.66842C39.0699 2.70025 39.3894 2.79658 39.6813 2.95191C39.9731 3.10724 40.2315 3.31852 40.4416 3.57371C40.6518 3.82889 40.8096 4.12296 40.9061 4.43915C41.0027 4.75533 41.036 5.08743 41.0041 5.41648ZM21.2697 1.73153C21.4802 1.98668 21.6384 2.28079 21.7352 2.59706L23.0741 6.97599C23.2585 7.61081 23.1857 8.29269 22.8715 8.8743C22.5573 9.45591 22.0268 9.89052 21.3948 10.0842C20.7628 10.2779 20.0799 10.2152 19.4937 9.90954C18.9076 9.60388 18.4652 9.07987 18.2623 8.45074L16.9184 4.07181C16.8216 3.75553 16.788 3.42328 16.8195 3.09402C16.8511 2.76476 16.9472 2.44494 17.1024 2.15283C17.2576 1.86072 17.4687 1.60203 17.7239 1.39153C17.979 1.18104 18.2731 1.02286 18.5894 0.926024C18.9057 0.829191 19.238 0.795602 19.5672 0.827174C19.8965 0.858746 20.2163 0.954861 20.5084 1.11003C20.8005 1.2652 21.0592 1.47639 21.2697 1.73153ZM38.1939 17.6113C35.4257 14.3598 31.3034 12.2961 26.693 12.2961C23.9746 12.2967 21.3067 13.0312 18.971 14.4219C16.6354 15.8127 14.7184 17.8082 13.4226 20.1979C12.1267 22.5875 11.5 25.2827 11.6086 27.9989C11.7171 30.7151 12.5569 33.3517 14.0394 35.6303C15.4302 34.6498 16.9561 33.8767 18.5693 33.3351C17.1564 31.397 16.4819 29.0182 16.6673 26.6269C16.8527 24.2357 17.8858 21.9892 19.5805 20.2921C21.2752 18.5949 23.5202 17.5586 25.9112 17.3698C28.3022 17.181 30.682 17.852 32.6221 19.2622C34.3737 18.482 36.241 17.9233 38.1939 17.6113ZM4.71354 13.0898C5.04259 13.1216 5.36214 13.2179 5.65396 13.3733H5.64893L9.69567 15.5174C10.285 15.8311 10.7256 16.3661 10.9205 17.0047C11.1155 17.6432 11.0487 18.3331 10.735 18.9224C10.4213 19.5118 9.88636 19.9524 9.2478 20.1473C8.60923 20.3422 7.9194 20.2755 7.33004 19.9618L3.28834 17.8176C2.99652 17.6623 2.73815 17.451 2.52798 17.1958C2.31782 16.9406 2.15997 16.6466 2.06346 16.3304C1.96694 16.0142 1.93365 15.6821 1.96548 15.3531C1.99731 15.024 2.09364 14.7044 2.24897 14.4126C2.4043 14.1208 2.61559 13.8624 2.87077 13.6523C3.12595 13.4421 3.42002 13.2843 3.73621 13.1877C4.05239 13.0912 4.38449 13.0579 4.71354 13.0898ZM9.2066 34.6052C8.90094 35.1913 8.37693 35.6337 7.7478 35.8367L3.36887 37.1755C3.05139 37.2779 2.71671 37.3162 2.3843 37.2881C2.05189 37.26 1.72839 37.1661 1.43259 37.0119C1.1368 36.8576 0.874627 36.6461 0.661317 36.3896C0.448006 36.1332 0.287816 35.8368 0.190063 35.5179C0.0923096 35.1989 0.0589434 34.8637 0.0919049 34.5318C0.124866 34.1998 0.223498 33.8777 0.382063 33.5842C0.540628 33.2907 0.755964 33.0317 1.01555 32.8221C1.27513 32.6126 1.57378 32.4568 1.89413 32.3637L6.27306 31.0249C6.90787 30.8404 7.58975 30.9132 8.17136 31.2274C8.75297 31.5416 9.18759 32.0721 9.3813 32.7041C9.57501 33.3362 9.51226 34.019 9.2066 34.6052Z" fill="#F1C411"/>
<path d="M61.2506 56.3648C63.1972 56.3648 65.1249 55.984 66.9234 55.2442C68.7219 54.5044 70.356 53.42 71.7325 52.0529C74.5125 49.292 76.0743 45.5475 76.0743 41.643C76.0743 37.7386 74.5125 33.994 71.7325 31.2332C68.9525 28.4723 65.1821 26.9212 61.2506 26.9212C58.2858 20.002 51.4669 15.1438 43.4621 15.1438C33.293 15.1438 24.962 22.9758 24.1912 32.8983L22.7088 32.81C19.5636 32.81 16.5472 34.0508 14.3233 36.2595C12.0993 38.4682 10.8498 41.4638 10.8498 44.5874C10.8498 47.711 12.0993 50.7066 14.3233 52.9153C16.5472 55.124 19.5636 56.3648 22.7088 56.3648H61.2506ZM22.7088 38.6987H28.6383V35.7543C28.6383 31.8498 30.2001 28.1053 32.9801 25.3444C35.7601 22.5836 39.5306 21.0325 43.4621 21.0325C50.8739 21.0325 56.9517 26.3912 58.1079 33.3694C59.0863 33.0161 60.1536 32.81 61.2506 32.81C63.6095 32.81 65.8718 33.7406 67.5397 35.3971C69.2077 37.0536 70.1448 39.3004 70.1448 41.643C70.1448 43.9857 69.2077 46.2324 67.5397 47.889C65.8718 49.5455 63.6095 50.4761 61.2506 50.4761H22.7088C21.1362 50.4761 19.628 49.8557 18.516 48.7513C17.404 47.647 16.7793 46.1492 16.7793 44.5874C16.7793 43.0256 17.404 41.5278 18.516 40.4234C19.628 39.3191 21.1362 38.6987 22.7088 38.6987Z" fill="#C4C4C4"/>
</svg>
